#!OML:ASF H:\Terrain\Patient Classification 1\Terrain2\Thursday\justin.ASF
:FULLY-SPECIFIED
:DEGREES
3504
root 20.1568 21.1984 2.42634 -173.748 -24.1467 -177.131
lowerback 13.7366 0.0104518 3.60442
upperback 3.82946 0.189232 2.80433
thorax -3.6483 -0.110838 0.882219
lowerneck -9.79624 1.46012 -13.3604
upperneck 39.1243 -0.298627 3.77901
head 15.3658 -2.9022 3.59719
rclavicle -3.27995e-014 -1.59028e-014
rhumerus -36.7644 0.715092 -66.2025
rradius 63.6085
rwrist -16.1662
rhand -23.253 7.3861
rfingers 7.12502
rthumb 3.19878 -22.5697
lclavicle -3.27995e-014 -1.59028e-014
lhumerus -39.1827 6.70882 75.1459
lradius 51.0361
lwrist 5.21407
lhand -20.4082 15.3026
lfingers 7.12502
lthumb 5.94574 45.1992
rfemur -22.5863 -11.5857 26.6198
rtibia 29.6891
rfoot -10.1768 1.856
rtoes 10.8297
lfemur -25.8397 -9.52299 -6.12514
ltibia 105.122
lfoot -12.9822 -6.39979
ltoes 2.85792
3505
root 20.1484 21.2162 2.40196 -174.165 -24.1382 -176.54
lowerback 13.7918 -0.0626028 4.02195
upperback 3.94259 0.125117 3.09515
thorax -3.55633 -0.157463 0.963559
lowerneck -10.0101 1.4401 -13.8675
upperneck 39.1148 -0.223799 4.00001
head 15.4058 -2.91112 3.79564
rclavicle -3.4191e-014 8.74653e-015
rhumerus -36.3406 0.793925 -65.9648
rradius 63.5145
rwrist -16.2798
rhand -23.1089 6.68963
rfingers 7.12502
rthumb 3.33793 -23.264
lclavicle -3.4191e-014 8.74653e-015
lhumerus -39.1985 6.91318 75.381
lradius 51.3134
lwrist 4.82782
lhand -19.0708 15.2115
lfingers 7.12502
lthumb 7.23683 45.0677
rfemur -21.7879 -11.4934 27.1406
rtibia 28.7736
rfoot -10.0149 1.84176
rtoes 14.2149
lfemur -27.3957 -9.45563 -5.97886
ltibia 105.113
lfoot -13.2082 -6.71178
ltoes 4.20847
3506
root 20.1415 21.226 2.38067 -174.299 -23.9961 -176.271
lowerback 13.6924 -0.326977 3.95522
upperback 4.12448 -0.278626 3.55886
thorax -3.31199 -0.374454 1.55229
lowerneck -10.5928 1.60741 -15.1917
upperneck 39.1235 0.444269 4.21246
head 15.4751 -2.79256 4.22332
rclavicle -8.34896e-015 2.54444e-014
rhumerus -35.1647 1.82687 -65.5887
rradius 63.2187
rwrist -16.2636
rhand -23.2914 6.71258
rfingers 7.12502
rthumb 3.16169 -23.2437
lclavicle -8.34896e-015 2.54444e-014
lhumerus -39.3385 8.29037 75.6167
lradius 51.2877
lwrist 4.53126
lhand -19.4105 15.607
lfingers 7.12502
lthumb 6.90889 45.4743
rfemur -21.3333 -11.3515 27.4156
rtibia 28.135
rfoot -10.1073 1.84278
rtoes 12.49
lfemur -28.8954 -9.13311 -6.23768
ltibia 105.039
lfoot -13.7576 -6.47439
ltoes 2.13866
3507
root 20.1409 21.2389 2.35882 -174.289 -23.8808 -176.465
lowerback 13.7331 0.416373 4.16147
upperback 3.87102 0.790544 2.74571
thorax -3.58418 0.182216 0.408118
lowerneck -9.36915 1.02397 -12.5336
upperneck 39.0688 -1.35273 3.98953
head 15.3455 -3.19635 3.38579
rclavicle -3.57812e-014 4.37326e-014
rhumerus -36.8865 -1.22576 -65.8366
rradius 63.3132
rwrist -16.0493
rhand -22.949 6.38091
rfingers 7.12502
rthumb 3.49237 -23.5702
lclavicle -3.57812e-014 4.37326e-014
lhumerus -38.8482 4.88309 75.3651
lradius 50.9195
lwrist 4.68158
lhand -20.5625 14.8176
lfingers 7.12502
lthumb 5.79678 44.7183
rfemur -20.9552 -11.2681 27.2444
rtibia 27.7109
rfoot -10.129 1.82231
rtoes 8.46539
lfemur -30.381 -9.05832 -7.03573
ltibia 104.756
lfoot -14.3364 -6.06006
ltoes -1.02375
3508
root 20.1416 21.2456 2.33828 -174.401 -23.8328 -176.53
lowerback 13.8191 0.274038 3.90688
upperback 3.97849 0.554767 2.89683
thorax -3.52796 0.0597111 0.748656
lowerneck -9.78994 1.16653 -13.1053
upperneck 39.2865 -1.0449 4.25708
head 15.5251 -3.13229 3.65331
rclavicle 3.95581e-014 -7.95139e-016
rhumerus -36.1664 -0.934291 -65.7162
rradius 62.9644
rwrist -16.402
rhand -22.9927 6.98273
rfingers 7.12502
rthumb 3.45013 -22.9691
lclavicle 3.95581e-014 -7.95139e-016
lhumerus -38.9378 5.38112 75.5174
lradius 50.7961
lwrist 4.67389
lhand -20.3394 15.3128
lfingers 7.12502
lthumb 6.01219 45.2075
rfemur -20.5535 -11.2224 27.1732
rtibia 27.3889
rfoot -10.0432 1.77776
rtoes 7.55032
lfemur -31.8463 -9.15277 -7.70408
ltibia 104.176
lfoot -14.8383 -5.76628
ltoes -2.78601
3509
root 20.1386 21.2448 2.31386 -174.666 -23.6652 -176.169
lowerback 13.8608 0.250982 4.04181
upperback 4.05478 0.526707 3.0992
thorax -3.46996 0.036374 0.890088
lowerneck -9.99132 1.20874 -13.4867
upperneck 39.3173 -0.922679 4.48168
head 15.5767 -3.10792 3.83954
rclavicle 6.55989e-015 5.56597e-015
rhumerus -35.7112 -0.860312 -65.6153
rradius 62.5048
rwrist -16.6129
rhand -24.2745 8.99581
rfingers 7.12502
rthumb 2.21223 -20.9725
lclavicle 6.55989e-015 5.56597e-015
lhumerus -38.9723 5.51212 75.7008
lradius 50.5726
lwrist 4.81152
lhand -19.85 17.7957
lfingers 7.12502
lthumb 6.4846 47.6765
rfemur -20.1087 -10.9064 27.496
rtibia 27.0169
rfoot -9.96827 1.63023
rtoes 9.25295
lfemur -33.1856 -8.92108 -7.87782
ltibia 103.357
lfoot -15.3117 -5.61271
ltoes -3.78767
3510
root 20.1303 21.2432 2.28524 -174.978 -23.431 -175.665
lowerback 13.9047 0.234229 4.36403
upperback 4.06506 0.5401 3.26403
thorax -3.47875 0.0341359 0.880454
lowerneck -9.98965 1.28217 -13.4886
upperneck 39.3051 -0.776065 4.37711
head 15.5525 -3.06335 3.81423
rclavicle -3.37934e-015 9.62118e-014
rhumerus -35.4507 -0.847768 -65.5994
rradius 62.1397
rwrist -16.6318
rhand -24.6144 9.11165
rfingers 7.12502
rthumb 1.88401 -20.8598
lclavicle -3.37934e-015 9.62118e-014
lhumerus -39.1169 5.58015 75.7718
lradius 50.5112
lwrist 4.86283
lhand -20.7503 19.4004
lfingers 7.12502
lthumb 5.61541 49.306
rfemur -19.5941 -10.5206 27.9541
rtibia 26.5214
rfoot -9.86953 1.30606
rtoes 15.7814
lfemur -34.3228 -8.66586 -7.85552
ltibia 102.253
lfoot -15.458 -5.95976
ltoes -2.78508
3511
root 20.1202 21.2379 2.25909 -175.214 -23.301 -175.134
lowerback 13.9087 0.251363 4.90838
upperback 3.97695 0.643646 3.27397
thorax -3.56242 0.0817779 0.568736
lowerneck -9.89849 1.29459 -13.1248
upperneck 39.4176 -0.867364 4.253
head 15.5947 -3.0824 3.68104
rclavicle -9.85972e-014 -4.77083e-015
rhumerus -35.501 -1.23413 -65.683
rradius 61.8982
rwrist -16.6769
rhand -23.6876 6.91458
rfingers 7.12502
rthumb 2.77906 -23.0471
lclavicle -9.85972e-014 -4.77083e-015
lhumerus -39.2607 5.22751 75.7025
lradius 50.5737
lwrist 4.89642
lhand -20.5602 16.9705
lfingers 7.12502
lthumb 5.79897 46.8712
rfemur -19.2548 -10.1864 28.4392
rtibia 26.0924
rfoot -9.93528 1.32655
rtoes 10.1688
lfemur -35.4982 -8.71818 -7.69499
ltibia 100.884
lfoot -15.3541 -6.98862
ltoes 2.724
3512
root 20.1073 21.2278 2.23568 -175.344 -23.2086 -174.703
lowerback 13.8105 0.309436 5.45449
upperback 3.90357 0.795294 3.21716
thorax -3.57058 0.156331 0.178078
lowerneck -9.75443 1.20804 -12.8057
upperneck 39.4149 -1.14596 4.3128
head 15.5866 -3.14816 3.60787
rclavicle 2.18663e-015 1.82882e-014
rhumerus -35.5479 -1.87655 -65.7433
rradius 61.4478
rwrist -16.6799
rhand -23.7248 6.47355
rfingers 7.12502
rthumb 2.74313 -23.4886
lclavicle 2.18663e-015 1.82882e-014
lhumerus -39.2415 4.76314 75.6027
lradius 50.4331
lwrist 4.89898
lhand -21.3709 19.15
lfingers 7.12502
lthumb 5.01618 49.0706
rfemur -19.1785 -9.85425 28.7782
rtibia 25.9412
rfoot -10.0109 1.34901
rtoes 14.2443
lfemur -36.7145 -8.88838 -7.65523
ltibia 99.3486
lfoot -15.3857 -7.95348
ltoes 7.68492
3513
root 20.0955 21.2165 2.21444 -175.261 -22.9311 -174.824
lowerback 13.6965 0.451325 5.39587
upperback 3.92236 0.968292 3.08524
thorax -3.48199 0.248166 0.0440907
lowerneck -9.68696 1.09495 -12.7698
upperneck 39.3127 -1.42691 4.60218
head 15.5491 -3.21226 3.68583
rclavicle -1.39149e-015 -5.24792e-014
rhumerus -35.4244 -2.53155 -65.7616
rradius 60.8322
rwrist -16.5244
rhand -24.5771 8.26047
rfingers 7.12502
rthumb 1.92 -21.7106
lclavicle -1.39149e-015 -5.24792e-014
lhumerus -39.0334 4.40751 75.6558
lradius 50.2147
lwrist 5.01321
lhand -21.1105 18.2195
lfingers 7.12502
lthumb 5.26764 48.134
rfemur -19.1958 -9.74827 28.6395
rtibia 26.0806
rfoot -10.1026 1.28765
rtoes 17.1221
lfemur -37.8468 -8.80718 -8.3881
ltibia 97.8676
lfoot -15.7604 -7.73605
ltoes 4.76466
3514
root 20.0878 21.2031 2.19348 -175.178 -22.507 -175.036
lowerback 13.6799 0.556113 5.05309
upperback 3.96302 1.05642 3.07222
thorax -3.43532 0.294107 0.208138
lowerneck -9.82012 1.10267 -13.1203
upperneck 39.3503 -1.43733 4.95087
head 15.604 -3.22558 3.90145
rclavicle 7.25564e-014 1.98785e-014
rhumerus -35.1302 -2.83033 -65.7354
rradius 60.3705
rwrist -16.4536
rhand -24.9601 9.06572
rfingers 7.12502
rthumb 1.55008 -20.9084
lclavicle 7.25564e-014 1.98785e-014
lhumerus -39.0155 4.52451 75.7752
lradius 50.0754
lwrist 5.09961
lhand -20.7498 17.6079
lfingers 7.12502
lthumb 5.61592 47.5135
rfemur -19.2071 -9.64181 28.4766
rtibia 26.4376
rfoot -10.1378 1.29687
rtoes 16.2319
lfemur -38.8165 -8.59355 -9.12635
ltibia 95.8815
lfoot -15.5535 -8.0885
ltoes 4.26997
3515
root 20.0784 21.1889 2.16971 -175.218 -22.065 -175.023
lowerback 13.7075 0.558078 4.8495
upperback 3.99199 1.02609 3.20038
thorax -3.42793 0.274965 0.461711
lowerneck -9.97973 1.21093 -13.5594
upperneck 39.4192 -1.18919 5.06299
head 15.6507 -3.18136 4.06701
rclavicle 3.99557e-014 -1.82882e-014
rhumerus -34.6484 -2.73678 -65.6762
rradius 59.9301
rwrist -16.3965
rhand -24.8802 8.79643
rfingers 7.12502
rthumb 1.62724 -21.1771
lclavicle 3.99557e-014 -1.82882e-014
lhumerus -39.2584 5.21514 75.7774
lradius 49.8398
lwrist 4.89667
lhand -21.3287 18.7269
lfingers 7.12502
lthumb 5.05701 48.6466
rfemur -19.2814 -9.2961 28.4562
rtibia 26.9627
rfoot -10.4187 1.52332
rtoes 16.5173
lfemur -39.4201 -8.21729 -9.58259
ltibia 93.6718
lfoot -15.8241 -8.3702
ltoes 1.36555
3516
root 20.0624 21.1707 2.1423 -175.213 -21.6403 -175.074
lowerback 13.604 0.548203 4.69644
upperback 4.08589 0.970247 3.26661
thorax -3.27875 0.245826 0.626474
lowerneck -10.2145 1.28964 -13.8669
upperneck 39.37 -0.894104 5.01839
head 15.6484 -3.09883 4.1471
rclavicle -2.66371e-014 1.59028e-015
rhumerus -34.114 -2.57746 -65.7302
rradius 59.3708
rwrist -16.1347
rhand -25.0298 8.45591
rfingers 7.12502
rthumb 1.48276 -21.5187
lclavicle -2.66371e-014 1.59028e-015
lhumerus -39.3593 5.96927 75.7593
lradius 49.5639
lwrist 4.67547
lhand -21.7265 20.1347
lfingers 7.12502
lthumb 4.67286 50.0632
rfemur -19.4688 -9.06927 28.3331
rtibia 27.5592
rfoot -11.1549 1.66853
rtoes 16.1646
lfemur -39.8142 -7.93261 -10.1313
ltibia 91.1855
lfoot -15.9544 -8.60986
ltoes -2.85158
